#!OML:ASF I:\Actors\actors\Patient Classification 2\Patient 1\Session 1\actor1.ASF
:FULLY-SPECIFIED
:DEGREES
201
root -0.479784 18.5348 5.74272 -2.09956 -10.7315 -2.72508
lowerback 23.7356 1.1065 2.2208
upperback 2.96835 2.07119 0.784431
thorax -9.91986 0.893222 -1.0557
lowerneck -4.79145 -9.23069 -5.93118
upperneck 18.2297 -13.0686 5.91094
head 7.14701 -6.23655 1.80787
rclavicle 2.55935e-014 -7.10655e-015
rhumerus -90.6839 14.674 -105.888
rradius 111.588
rwrist -7.82027
rhand -20.9947 -42.4369
rfingers 7.12502
rthumb 5.37946 -72.3486
lclavicle 2.55935e-014 -7.10655e-015
lhumerus -88.8921 -20.83 113.171
lradius 112.93
lwrist 28.981
lhand -29.992 -24.1954
lfingers 7.12502
lthumb -3.30977 5.75867
rfemur 8.652 4.0684 14.9966
rtibia -7.95139e-016
rfoot -11.4739 -8.51306
rtoes -13.2653
lfemur -2.62391 3.00704 -12.0658
ltibia 27.5727
lfoot -23.3477 10.2675
ltoes -56.0463
202
root -0.479011 18.5344 5.73994 -2.06431 -10.8762 -2.75323
lowerback 23.6951 1.107 2.27424
upperback 2.95354 2.08547 0.79272
thorax -9.91285 0.898047 -1.08073
lowerneck -5.18732 -8.902 -5.54672
upperneck 18.7501 -12.647 5.72776
head 7.32032 -6.00559 1.70482
rclavicle 1.38528e-014 1.79403e-014
rhumerus -90.6681 14.6191 -105.898
rradius 111.559
rwrist -7.71978
rhand -21.0698 -42.3959
rfingers 7.12502
rthumb 5.30693 -72.3095
lclavicle 1.38528e-014 1.79403e-014
lhumerus -88.9089 -20.8458 113.169
lradius 112.897
lwrist 28.934
lhand -29.9778 -24.2357
lfingers 7.12502
lthumb -3.29598 5.71861
rfemur 8.58109 4.2075 15.0438
rtibia 0
rfoot -11.4736 -8.50686
rtoes -13.4486
lfemur -2.63017 2.93618 -12.0747
ltibia 27.5668
lfoot -23.3893 10.4063
ltoes -55.8418
203
root -0.479294 18.534 5.73769 -2.05984 -10.9807 -2.75684
lowerback 23.6967 1.10915 2.32117
upperback 2.92505 2.09944 0.778181
thorax -9.94289 0.901767 -1.12849
lowerneck -5.71076 -8.45513 -4.99861
upperneck 19.4606 -12.0866 5.50526
head 7.56099 -5.69397 1.56955
rclavicle -9.21864e-015 8.24956e-015
rhumerus -90.6572 14.4553 -105.925
rradius 111.544
rwrist -7.69289
rhand -21.2122 -42.4563
rfingers 7.12502
rthumb 5.16948 -72.3732
lclavicle -9.21864e-015 8.24956e-015
lhumerus -88.9541 -20.889 113.182
lradius 112.857
lwrist 28.9611
lhand -30.0131 -24.3304
lfingers 7.12502
lthumb -3.33014 5.62331
rfemur 8.55344 4.30991 15.064
rtibia 1.74931e-014
rfoot -11.4485 -8.48985
rtoes -13.4869
lfemur -2.60358 2.78247 -12.1126
ltibia 27.5476
lfoot -23.4695 10.628
ltoes -55.7997
204
root -0.481042 18.5334 5.73695 -2.08624 -11.0841 -2.75611
lowerback 23.7027 1.10789 2.33384
upperback 2.90853 2.10221 0.78434
thorax -9.96436 0.902165 -1.13017
lowerneck -6.38624 -7.89072 -4.37682
upperneck 20.3231 -11.3805 5.26197
head 7.87246 -5.30295 1.42308
rclavicle -1.47225e-014 9.49197e-015
rhumerus -90.6807 14.3362 -105.917
rradius 111.552
rwrist -7.68183
rhand -21.3142 -42.3501
rfingers 7.12502
rthumb 5.07099 -72.2694
lclavicle -1.47225e-014 9.49197e-015
lhumerus -88.9694 -20.8861 113.21
lradius 112.802
lwrist 29.0119
lhand -30.0219 -24.4898
lfingers 7.12502
lthumb -3.3386 5.46385
rfemur 8.56331 4.41391 15.0832
rtibia -6.36111e-015
rfoot -11.4549 -8.45533
rtoes -13.2742
lfemur -2.51977 2.75741 -12.124
ltibia 27.4985
lfoot -23.5061 10.7832
ltoes -55.8795
205
root -0.482719 18.5341 5.73804 -2.11193 -11.2113 -2.74754
lowerback 23.6611 1.09309 2.34348
upperback 2.9125 2.08442 0.78986
thorax -9.93812 0.893989 -1.12286
lowerneck -7.04427 -7.23774 -3.81441
upperneck 21.1607 -10.581 5.16879
head 8.19008 -4.85951 1.34825
rclavicle -1.65116e-014 7.65321e-015
rhumerus -90.7021 14.3237 -105.911
rradius 111.589
rwrist -7.62629
rhand -21.3615 -42.2796
rfingers 7.12502
rthumb 5.02527 -72.2
lclavicle -1.65116e-014 7.65321e-015
lhumerus -88.8829 -20.8253 113.17
lradius 112.743
lwrist 29.0321
lhand -29.9708 -24.5444
lfingers 7.12502
lthumb -3.28925 5.40993
rfemur 8.57388 4.54099 15.1018
rtibia 4.77083e-015
rfoot -11.4761 -8.48304
rtoes -13.4795
lfemur -2.4071 2.85826 -12.1248
ltibia 27.4178
lfoot -23.5163 10.7676
ltoes -55.8426
